<mxfile host="app.diagrams.net" agent="Mozilla/5.0 (Windows NT 10.0; Win64; x64) AppleWebKit/537.36 (KHTML, like Gecko) Chrome/126.0.0.0 Safari/537.36 OPR/112.0.0.0" version="24.7.6">
  <diagram name="Page-1" id="j58Y1ketpCQPumsnCz0f">
    <mxGraphModel dx="1140" dy="708" grid="1" gridSize="10" guides="1" tooltips="1" connect="1" arrows="1" fold="1" page="1" pageScale="1" pageWidth="827" pageHeight="1169" math="0" shadow="0">
      <root>
        <mxCell id="0" />
        <mxCell id="1" parent="0" />
        <mxCell id="7Sf3gH1vpOUWFyAs1231-1" style="edgeStyle=orthogonalEdgeStyle;rounded=0;orthogonalLoop=1;jettySize=auto;html=1;" parent="1" source="7Sf3gH1vpOUWFyAs1231-2" edge="1">
          <mxGeometry relative="1" as="geometry">
            <mxPoint x="414" y="763" as="targetPoint" />
          </mxGeometry>
        </mxCell>
        <mxCell id="7Sf3gH1vpOUWFyAs1231-2" value="BANKING&lt;div&gt;SYSTEM&lt;/div&gt;" style="ellipse;whiteSpace=wrap;html=1;aspect=fixed;" parent="1" vertex="1">
          <mxGeometry x="374" y="493" width="80" height="80" as="geometry" />
        </mxCell>
        <mxCell id="7Sf3gH1vpOUWFyAs1231-3" style="edgeStyle=orthogonalEdgeStyle;rounded=0;orthogonalLoop=1;jettySize=auto;html=1;" parent="1" source="7Sf3gH1vpOUWFyAs1231-4" target="7Sf3gH1vpOUWFyAs1231-2" edge="1">
          <mxGeometry relative="1" as="geometry" />
        </mxCell>
        <mxCell id="7Sf3gH1vpOUWFyAs1231-4" value="Manager" style="rounded=0;whiteSpace=wrap;html=1;" parent="1" vertex="1">
          <mxGeometry x="134" y="363" width="120" height="60" as="geometry" />
        </mxCell>
        <mxCell id="7Sf3gH1vpOUWFyAs1231-5" value="Cashier" style="rounded=0;whiteSpace=wrap;html=1;" parent="1" vertex="1">
          <mxGeometry x="594" y="353" width="120" height="60" as="geometry" />
        </mxCell>
        <mxCell id="7Sf3gH1vpOUWFyAs1231-6" value="Customer" style="rounded=0;whiteSpace=wrap;html=1;" parent="1" vertex="1">
          <mxGeometry x="134" y="513" width="120" height="60" as="geometry" />
        </mxCell>
        <mxCell id="7Sf3gH1vpOUWFyAs1231-7" style="edgeStyle=orthogonalEdgeStyle;rounded=0;orthogonalLoop=1;jettySize=auto;html=1;entryX=1;entryY=0.5;entryDx=0;entryDy=0;" parent="1" source="7Sf3gH1vpOUWFyAs1231-8" target="7Sf3gH1vpOUWFyAs1231-2" edge="1">
          <mxGeometry relative="1" as="geometry" />
        </mxCell>
        <mxCell id="7Sf3gH1vpOUWFyAs1231-8" value="Bank" style="rounded=0;whiteSpace=wrap;html=1;" parent="1" vertex="1">
          <mxGeometry x="594" y="503" width="120" height="60" as="geometry" />
        </mxCell>
        <mxCell id="7Sf3gH1vpOUWFyAs1231-9" style="edgeStyle=orthogonalEdgeStyle;rounded=0;orthogonalLoop=1;jettySize=auto;html=1;entryX=0;entryY=1;entryDx=0;entryDy=0;exitX=0.996;exitY=0.547;exitDx=0;exitDy=0;exitPerimeter=0;" parent="1" source="7Sf3gH1vpOUWFyAs1231-11" target="7Sf3gH1vpOUWFyAs1231-2" edge="1">
          <mxGeometry relative="1" as="geometry">
            <mxPoint x="244" y="668" as="sourcePoint" />
          </mxGeometry>
        </mxCell>
        <mxCell id="7Sf3gH1vpOUWFyAs1231-15" style="edgeStyle=orthogonalEdgeStyle;rounded=0;orthogonalLoop=1;jettySize=auto;html=1;entryX=1;entryY=0.313;entryDx=0;entryDy=0;entryPerimeter=0;" parent="1" source="7Sf3gH1vpOUWFyAs1231-5" target="7Sf3gH1vpOUWFyAs1231-2" edge="1">
          <mxGeometry relative="1" as="geometry" />
        </mxCell>
        <mxCell id="7Sf3gH1vpOUWFyAs1231-16" style="edgeStyle=orthogonalEdgeStyle;rounded=0;orthogonalLoop=1;jettySize=auto;html=1;" parent="1" source="7Sf3gH1vpOUWFyAs1231-6" edge="1">
          <mxGeometry relative="1" as="geometry">
            <mxPoint x="374" y="543" as="targetPoint" />
          </mxGeometry>
        </mxCell>
        <mxCell id="7Sf3gH1vpOUWFyAs1231-17" value="List of all customers in a branch" style="text;html=1;align=center;verticalAlign=middle;whiteSpace=wrap;rounded=0;" parent="1" vertex="1">
          <mxGeometry x="416.5" y="703" width="80" height="30" as="geometry" />
        </mxCell>
        <mxCell id="7Sf3gH1vpOUWFyAs1231-18" value="Manages Loan request and employees in a branch" style="text;html=1;align=center;verticalAlign=middle;whiteSpace=wrap;rounded=0;" parent="1" vertex="1">
          <mxGeometry x="274" y="353" width="140" height="30" as="geometry" />
        </mxCell>
        <mxCell id="7Sf3gH1vpOUWFyAs1231-19" value="Responds to any customer queries for transaction or transfer in a branch" style="text;html=1;align=center;verticalAlign=middle;whiteSpace=wrap;rounded=0;" parent="1" vertex="1">
          <mxGeometry x="454" y="423" width="60" height="30" as="geometry" />
        </mxCell>
        <mxCell id="7Sf3gH1vpOUWFyAs1231-20" value="Controls/Owns Bank" style="text;html=1;align=center;verticalAlign=middle;whiteSpace=wrap;rounded=0;" parent="1" vertex="1">
          <mxGeometry x="479" y="533" width="95" height="30" as="geometry" />
        </mxCell>
        <mxCell id="7Sf3gH1vpOUWFyAs1231-21" value="Transaction/Loan" style="text;html=1;align=center;verticalAlign=middle;whiteSpace=wrap;rounded=0;" parent="1" vertex="1">
          <mxGeometry x="274" y="513" width="60" height="30" as="geometry" />
        </mxCell>
        <mxCell id="7Sf3gH1vpOUWFyAs1231-22" style="edgeStyle=orthogonalEdgeStyle;rounded=0;orthogonalLoop=1;jettySize=auto;html=1;exitX=0;exitY=0.5;exitDx=0;exitDy=0;" parent="1" edge="1">
          <mxGeometry relative="1" as="geometry">
            <mxPoint x="524" y="673" as="sourcePoint" />
            <mxPoint x="454" y="553" as="targetPoint" />
            <Array as="points">
              <mxPoint x="524" y="674" />
              <mxPoint x="489" y="674" />
              <mxPoint x="489" y="551" />
            </Array>
          </mxGeometry>
        </mxCell>
        <mxCell id="7Sf3gH1vpOUWFyAs1231-23" value="List of all employees in a branch" style="text;html=1;align=center;verticalAlign=middle;whiteSpace=wrap;rounded=0;" parent="1" vertex="1">
          <mxGeometry x="496.5" y="613" width="60" height="30" as="geometry" />
        </mxCell>
        <mxCell id="7Sf3gH1vpOUWFyAs1231-24" value="Customer Record" style="text;html=1;align=center;verticalAlign=middle;resizable=0;points=[];autosize=1;strokeColor=none;fillColor=none;" parent="1" vertex="1">
          <mxGeometry x="359" y="778" width="120" height="30" as="geometry" />
        </mxCell>
        <mxCell id="7Sf3gH1vpOUWFyAs1231-25" value="Account Details for customers" style="text;html=1;align=center;verticalAlign=middle;whiteSpace=wrap;rounded=0;" parent="1" vertex="1">
          <mxGeometry x="254" y="633" width="60" height="30" as="geometry" />
        </mxCell>
        <mxCell id="7Sf3gH1vpOUWFyAs1231-26" value="&lt;font style=&quot;font-size: 16px;&quot;&gt;Fig: Level-0 DFD for&amp;nbsp;&lt;/font&gt;&lt;div style=&quot;font-size: 16px;&quot;&gt;&lt;font style=&quot;font-size: 16px;&quot;&gt;Online Banking System&lt;/font&gt;&lt;/div&gt;" style="text;html=1;align=center;verticalAlign=middle;whiteSpace=wrap;rounded=0;" parent="1" vertex="1">
          <mxGeometry x="288" y="920" width="252" height="70" as="geometry" />
        </mxCell>
        <mxCell id="7Sf3gH1vpOUWFyAs1231-11" value="Account details" style="text;html=1;align=center;verticalAlign=middle;resizable=0;points=[];autosize=1;strokeColor=none;fillColor=none;" parent="1" vertex="1">
          <mxGeometry x="134" y="663" width="100" height="30" as="geometry" />
        </mxCell>
        <mxCell id="7Sf3gH1vpOUWFyAs1231-14" value="Employees_Record" style="text;html=1;align=center;verticalAlign=middle;whiteSpace=wrap;rounded=0;" parent="1" vertex="1">
          <mxGeometry x="564" y="658" width="60" height="30" as="geometry" />
        </mxCell>
        <mxCell id="7Sf3gH1vpOUWFyAs1231-27" value="" style="endArrow=none;html=1;rounded=0;" parent="1" edge="1">
          <mxGeometry width="50" height="50" relative="1" as="geometry">
            <mxPoint x="109" y="661" as="sourcePoint" />
            <mxPoint x="239" y="661" as="targetPoint" />
          </mxGeometry>
        </mxCell>
        <mxCell id="7Sf3gH1vpOUWFyAs1231-28" value="" style="endArrow=none;html=1;rounded=0;" parent="1" edge="1">
          <mxGeometry width="50" height="50" relative="1" as="geometry">
            <mxPoint x="110" y="697" as="sourcePoint" />
            <mxPoint x="234" y="697.5" as="targetPoint" />
          </mxGeometry>
        </mxCell>
        <mxCell id="7Sf3gH1vpOUWFyAs1231-31" value="" style="endArrow=none;html=1;rounded=0;" parent="1" edge="1">
          <mxGeometry width="50" height="50" relative="1" as="geometry">
            <mxPoint x="359" y="773" as="sourcePoint" />
            <mxPoint x="479" y="773" as="targetPoint" />
          </mxGeometry>
        </mxCell>
        <mxCell id="7Sf3gH1vpOUWFyAs1231-32" value="" style="endArrow=none;html=1;rounded=0;" parent="1" edge="1">
          <mxGeometry width="50" height="50" relative="1" as="geometry">
            <mxPoint x="359" y="813.5" as="sourcePoint" />
            <mxPoint x="479" y="813.5" as="targetPoint" />
          </mxGeometry>
        </mxCell>
        <mxCell id="7Sf3gH1vpOUWFyAs1231-33" value="" style="endArrow=none;html=1;rounded=0;" parent="1" edge="1">
          <mxGeometry width="50" height="50" relative="1" as="geometry">
            <mxPoint x="534" y="657.25" as="sourcePoint" />
            <mxPoint x="654" y="657.25" as="targetPoint" />
          </mxGeometry>
        </mxCell>
        <mxCell id="7Sf3gH1vpOUWFyAs1231-34" value="" style="endArrow=none;html=1;rounded=0;" parent="1" edge="1">
          <mxGeometry width="50" height="50" relative="1" as="geometry">
            <mxPoint x="534" y="697.75" as="sourcePoint" />
            <mxPoint x="654" y="697.75" as="targetPoint" />
          </mxGeometry>
        </mxCell>
      </root>
    </mxGraphModel>
  </diagram>
</mxfile>
